<?xml version="1.0" standalone="no"?>
<!DOCTYPE svg PUBLIC "-//W3C//DTD SVG 20010904//EN"
 "http://www.w3.org/TR/2001/REC-SVG-20010904/DTD/svg10.dtd">
<svg version="1.0" xmlns="http://www.w3.org/2000/svg"
 width="16.000000pt" height="16.000000pt" viewBox="0 0 16.000000 16.000000"
 preserveAspectRatio="xMidYMid meet">
<metadata>
Created by potrace 1.11, written by Peter Selinger 2001-2013
</metadata>
<g transform="translate(0.000000,16.000000) scale(0.001288,-0.001288)"
fill="#000000" stroke="none">
<path d="M8879 11393 c-229 -243 -390 -586 -441 -939 -28 -197 -9 -534 41
-730 l18 -69 6 55 c4 30 9 96 12 145 4 50 15 169 26 265 61 551 180 984 343
1253 19 31 34 57 32 57 -1 0 -18 -17 -37 -37z"/>
<path d="M6176 10537 c12 -77 62 -265 95 -354 100 -276 232 -485 417 -665 326
-316 755 -446 1296 -392 l59 6 -7 149 c-27 608 -176 1018 -409 1124 -132 61
-334 71 -686 36 -243 -25 -306 -26 -430 -6 -110 18 -204 53 -283 106 l-58 37
6 -41z m1290 -182 c89 -17 185 -59 235 -103 37 -32 93 -125 87 -143 -2 -6 -21
5 -43 25 -114 104 -255 186 -375 217 -63 17 -64 17 -23 18 23 1 76 -6 119 -14z
m-843 -524 c137 -141 369 -291 667 -430 178 -84 181 -85 285 -125 l90 -35 -45
0 c-144 -2 -383 60 -545 141 -134 67 -212 124 -321 232 -103 103 -160 178
-211 274 -31 61 -32 64 -8 37 14 -16 54 -59 88 -94z"/>
<path d="M9870 10428 c0 -158 -43 -337 -121 -505 -43 -94 -32 -98 42 -15 84
94 119 198 119 358 0 89 -21 238 -35 253 -3 2 -5 -39 -5 -91z"/>
<path d="M5166 9448 c-22 -21 -72 -60 -113 -87 -56 -37 -68 -49 -49 -47 13 0
24 5 23 10 -1 5 4 11 12 14 8 3 11 0 7 -7 -4 -6 -2 -11 4 -11 7 0 10 7 6 15
-3 8 -1 15 4 15 5 0 9 -10 8 -23 -2 -21 -7 -22 -61 -22 -33 0 -65 -4 -71 -10
-6 -6 -34 -18 -63 -26 -43 -11 -50 -17 -42 -29 8 -11 12 -12 16 -2 2 6 19 12
36 12 26 0 29 2 17 11 -12 9 -12 10 3 5 53 -17 70 -18 78 -5 5 8 9 10 9 4 0
-21 -19 -38 -43 -39 -17 -1 -23 3 -20 12 4 10 -1 11 -23 6 -16 -4 -37 -11 -46
-16 -11 -5 -25 -5 -37 2 -11 5 -28 10 -38 9 -16 0 -16 -1 2 -9 13 -6 15 -9 5
-9 -8 0 -21 3 -28 7 -7 5 -58 2 -115 -6 -56 -8 -121 -14 -144 -13 -24 0 -43
-4 -43 -9 0 -6 -18 -8 -42 -5 -36 3 -38 3 -13 -4 27 -8 26 -9 -18 -10 -34 -1
-46 2 -41 11 4 7 3 8 -5 4 -6 -4 -37 -8 -69 -8 l-57 -1 53 -10 c28 -5 52 -13
52 -17 0 -8 -72 -22 -79 -15 -2 3 3 5 12 5 35 0 15 18 -25 23 -48 7 -220 -12
-213 -23 2 -4 -10 -7 -28 -8 -75 -2 -74 -2 -54 -16 15 -12 12 -14 -30 -13 -30
0 -63 -7 -87 -20 l-40 -20 30 -1 c16 -1 63 -4 104 -7 41 -3 92 -5 113 -5 25 1
36 -3 32 -10 -3 -5 -12 -10 -19 -10 -14 0 -138 -58 -146 -69 -3 -3 -26 -22
-52 -41 -26 -19 -48 -41 -48 -48 0 -7 -4 -10 -10 -7 -14 9 -13 -8 2 -23 9 -9
9 -15 0 -24 -9 -9 -15 -9 -24 0 -15 15 -32 16 -23 2 3 -5 -4 -10 -15 -10 -16
0 -20 -4 -16 -16 4 -10 2 -13 -6 -8 -8 5 -9 1 -4 -12 4 -10 4 -15 0 -11 -11
10 -44 -23 -44 -45 0 -10 -7 -18 -15 -18 -11 0 -14 -7 -9 -25 4 -15 2 -25 -5
-25 -6 0 -8 8 -5 18 5 16 5 16 -9 0 -8 -10 -23 -18 -33 -18 -13 0 -15 3 -7 8
7 4 14 23 17 42 7 53 17 82 39 114 17 23 18 30 6 38 -11 8 -10 9 3 4 12 -3 25
4 40 24 23 31 80 74 138 102 26 13 30 17 15 18 -12 0 -27 -6 -34 -12 -11 -11
-13 -10 -7 5 4 13 2 17 -6 15 -7 -3 -14 -14 -16 -26 -2 -12 -8 -22 -13 -22 -6
0 -7 5 -4 10 3 6 -3 10 -15 10 -13 0 -19 -4 -14 -12 4 -7 3 -8 -5 -4 -16 10
-4 26 20 26 10 0 19 5 19 10 0 17 -35 11 -59 -11 -12 -12 -24 -19 -27 -16 -3
2 18 21 46 41 39 28 50 33 46 19 -5 -17 0 -19 53 -18 33 0 57 4 53 9 -3 5 0 6
6 2 12 -7 96 4 87 12 -3 3 -31 4 -62 3 -36 -2 -59 2 -63 10 -5 6 -15 9 -25 6
-9 -4 -13 -11 -10 -17 9 -15 -2 -12 -20 6 -14 15 -19 14 -53 -9 -20 -14 -51
-39 -69 -56 -36 -35 -102 -140 -108 -172 -3 -13 -9 -27 -15 -33 -5 -5 -10 -19
-9 -31 0 -19 1 -19 9 3 5 12 15 22 21 22 7 0 9 10 7 25 -3 13 -1 22 3 19 5 -3
7 1 6 8 -2 7 -2 10 0 6 10 -18 24 -6 17 14 -6 20 -5 21 10 6 15 -16 15 -20 1
-56 -11 -26 -22 -39 -33 -38 -11 1 -18 -8 -20 -22 -2 -12 -8 -20 -13 -16 -12
7 -39 -55 -32 -73 3 -7 0 -20 -7 -28 -6 -8 -10 -20 -7 -27 4 -8 6 -7 6 5 1 9
6 17 11 17 17 0 11 -18 -12 -34 -22 -15 -22 -18 -21 -313 0 -229 4 -322 17
-403 10 -58 20 -127 22 -155 8 -82 19 -95 80 -95 29 0 56 5 59 10 3 6 1 10 -4
10 -6 0 -11 6 -11 14 0 9 7 12 20 9 11 -3 20 0 20 6 0 6 9 11 19 11 11 0 22 6
24 13 4 9 6 9 6 -1 1 -7 -7 -16 -16 -20 -13 -5 -7 -9 22 -13 39 -6 39 -6 -13
-8 -30 0 -51 -5 -47 -10 6 -11 92 -4 117 10 9 5 31 9 48 9 18 0 29 4 25 10 -3
6 -1 10 4 10 6 0 11 -4 11 -9 0 -11 94 7 98 19 2 6 14 7 27 4 12 -3 26 -1 30
5 3 6 11 8 17 5 7 -5 9 -1 5 9 -5 13 -1 16 21 13 15 -2 20 -1 10 1 -9 2 -19
10 -22 18 -8 21 31 29 56 10 l23 -15 -30 3 c-16 3 -22 2 -12 0 9 -2 17 -9 17
-14 0 -5 13 -3 30 6 16 8 34 15 41 15 18 0 255 116 263 129 4 6 2 11 -3 11 -6
0 -10 11 -9 23 2 20 7 24 35 21 17 -1 36 -5 41 -8 16 -9 220 167 263 226 19
26 19 27 2 21 -15 -5 -16 -3 -5 8 6 7 12 21 12 31 0 10 5 18 10 18 16 0 11 19
-11 41 -16 16 -18 23 -8 35 6 8 9 17 6 20 -3 3 -18 -11 -34 -31 -15 -20 -42
-53 -60 -73 -18 -21 -28 -38 -22 -40 5 -2 9 -10 9 -18 0 -8 6 -17 14 -20 8 -3
12 -12 9 -20 -3 -9 1 -14 12 -14 9 0 13 -5 10 -11 -4 -6 -14 -8 -22 -5 -8 3
-12 2 -9 -3 10 -15 -20 -43 -47 -44 -15 -1 -27 -6 -27 -11 0 -4 -7 -5 -16 -2
-10 4 -14 2 -11 -6 2 -7 10 -12 16 -10 7 1 10 -2 6 -8 -4 -7 -12 -7 -25 0 -10
5 -25 10 -32 10 -7 -1 -1 -6 14 -13 l27 -12 -39 -33 c-22 -18 -40 -29 -40 -24
0 6 7 12 15 16 18 7 20 23 3 29 -7 2 -4 3 8 1 35 -6 36 9 2 24 -50 22 -87 22
-106 2 -9 -10 -39 -30 -66 -44 -27 -14 -54 -30 -60 -34 -6 -5 -37 -19 -69 -32
-34 -13 -54 -26 -47 -30 7 -4 -7 -7 -29 -7 -22 0 -46 -5 -53 -10 -7 -6 -31
-16 -53 -23 -22 -7 -50 -20 -63 -28 -24 -16 -109 -25 -117 -13 -2 4 7 14 21
21 l25 14 -28 11 c-27 12 -27 12 17 13 31 1 40 -2 30 -8 -8 -6 -10 -10 -4 -10
6 0 18 8 25 17 12 14 12 16 0 9 -9 -6 -12 -5 -9 5 3 8 13 13 23 12 21 -2 135
58 134 71 0 5 15 16 33 24 20 9 28 16 19 19 -7 3 -17 0 -21 -7 -4 -7 -13 -9
-19 -6 -17 11 -13 26 6 19 11 -4 14 -3 9 5 -9 15 -1 15 25 2 15 -8 25 -7 42 5
22 16 22 16 -8 9 l-30 -6 23 17 c12 9 26 14 31 11 11 -7 65 19 81 39 17 20 6
19 -14 -1 -14 -13 -16 -13 -16 -1 0 9 -6 17 -12 20 -7 3 5 3 28 1 29 -2 48 2
65 16 13 10 41 32 61 48 21 16 35 32 31 36 -3 3 -7 19 -8 35 l-2 30 25 -20
c14 -10 28 -17 31 -13 3 3 -2 12 -12 19 -17 12 -16 13 7 11 13 0 22 -4 19 -8
-11 -19 13 -5 51 29 39 35 67 73 33 44 -15 -12 -17 -11 -17 3 0 10 4 15 9 11
5 -3 17 5 25 17 9 12 16 18 16 12 0 -5 -5 -15 -12 -22 -7 -7 -8 -12 -4 -12 15
0 162 146 194 192 9 13 22 29 29 36 7 8 10 18 7 24 -5 7 -2 8 6 3 10 -6 12 -4
7 9 -4 10 -9 28 -11 39 -2 12 -1 16 1 10 3 -7 8 -13 13 -13 5 0 7 -7 4 -15 -4
-8 -1 -15 5 -15 6 0 11 6 11 13 0 7 8 22 18 33 25 28 58 85 67 119 l8 30 14
-34 c8 -18 12 -36 9 -39 -4 -3 -6 1 -6 9 -1 8 -7 -4 -16 -26 -13 -37 -13 -50
2 -110 3 -12 -2 -8 -12 9 l-16 29 -16 -34 c-8 -19 -14 -45 -13 -59 0 -15 -2
-20 -7 -13 -5 8 -11 3 -19 -13 -11 -23 -10 -24 4 -12 14 11 15 10 9 -8 -3 -12
-2 -33 4 -48 6 -18 6 -25 0 -21 -6 3 -10 11 -10 16 0 6 -6 16 -13 24 -11 11
-17 7 -33 -24 -10 -20 -25 -42 -32 -49 -6 -8 -17 -22 -22 -33 -8 -15 -7 -17 5
-13 8 4 15 10 15 16 0 5 5 6 10 3 18 -11 11 -52 -10 -58 -23 -6 -26 -20 -7
-39 7 -7 14 -17 15 -23 1 -5 8 -10 14 -10 16 0 107 134 108 158 0 10 4 16 8
13 5 -3 5 17 2 44 -5 37 -3 47 5 40 6 -5 10 -24 7 -42 l-4 -33 21 37 c24 44
26 52 9 43 -7 -4 -3 2 8 12 12 10 33 44 48 77 27 60 33 83 16 56 -8 -13 -10
-12 -10 3 0 9 4 17 10 17 5 0 14 10 21 21 7 13 7 19 1 15 -7 -4 -9 4 -8 21 2
18 9 28 19 27 10 -1 18 11 23 35 4 20 9 41 10 46 25 86 32 119 28 130 -3 7 -1
16 5 19 6 4 8 20 4 38 -5 24 -3 29 7 23 10 -6 11 -2 6 18 -3 14 -2 29 4 32 5
3 10 14 9 23 0 14 -2 13 -9 -3 -8 -18 -9 -18 -9 5 0 14 6 36 14 50 8 14 14 45
13 70 l-1 45 -6 -48 c-4 -26 -15 -55 -24 -64 -14 -14 -17 -15 -17 -3 0 8 7 24
15 34 10 13 15 42 14 87 -1 37 2 73 6 79 4 6 -2 20 -13 31 -13 11 -23 15 -27
9 -3 -6 1 -13 9 -16 9 -3 16 -15 16 -25 0 -27 -18 -24 -22 4 -2 17 -9 21 -28
20 -24 -3 -24 -2 -5 9 11 6 24 17 28 25 4 7 14 13 20 13 14 0 50 38 45 48 -2
4 -21 -10 -42 -30z m-9 -215 c-2 -16 -4 -5 -4 22 0 28 2 40 4 28 2 -13 2 -35
0 -50z m-187 47 c0 -5 -4 -10 -10 -10 -5 0 -10 5 -10 10 0 6 5 10 10 10 6 0
10 -4 10 -10z m-380 -97 c3 -3 -16 -3 -42 -2 -26 2 -50 0 -54 -4 -4 -4 -14 -7
-23 -7 -14 1 -13 3 2 14 16 12 103 11 117 -1z m-400 -31 c0 -4 -17 -6 -37 -4
-65 6 -70 10 -15 11 28 0 52 -3 52 -7z m260 2 c-34 -7 -108 -8 -103 -1 2 4 30
6 61 6 31 -1 50 -3 42 -5z m140 -5 c0 -11 -70 -12 -87 -1 -6 4 11 8 38 9 27 0
49 -3 49 -8z m-680 -53 c0 -16 -38 -25 -65 -16 -13 5 -15 9 -7 14 7 4 16 5 21
1 5 -3 12 -1 16 5 9 15 35 12 35 -4z m1247 -33 c-3 -10 -5 -4 -5 12 0 17 2 24
5 18 2 -7 2 -21 0 -30z m-1047 -13 c0 -5 -5 -10 -11 -10 -5 0 -7 5 -4 10 3 6
8 10 11 10 2 0 4 -4 4 -10z m-72 -44 c-10 -7 -16 -15 -13 -17 2 -3 -16 -5 -40
-5 -25 -1 -42 2 -40 6 3 5 15 6 28 3 18 -4 19 -3 7 6 -12 9 -9 10 14 5 21 -5
27 -4 22 5 -5 7 1 11 16 11 21 -1 22 -2 6 -14z m72 -6 c0 -5 -4 -10 -10 -10
-5 0 -10 5 -10 10 0 6 5 10 10 10 6 0 10 -4 10 -10z m-450 -40 c0 -5 -4 -10
-10 -10 -5 0 -10 5 -10 10 0 6 5 10 10 10 6 0 10 -4 10 -10z m280 0 c-20 -13
-43 -13 -35 0 3 6 16 10 28 10 18 0 19 -2 7 -10z m-240 -5 c0 -3 -9 -14 -21
-26 -26 -26 -39 -16 -14 11 17 19 35 26 35 15z m241 -28 c-6 -8 -7 -18 -3 -23
4 -4 -1 -2 -10 5 -9 7 -22 10 -28 6 -5 -3 -10 -2 -10 4 0 9 20 17 49 20 10 1
11 -2 2 -12z m-81 -12 c-7 -8 -20 -15 -29 -15 -11 1 -8 5 9 15 32 18 35 18 20
0z m-243 -32 c-7 -15 -14 -20 -20 -14 -13 13 -2 38 16 38 12 0 13 -5 4 -24z
m43 7 c0 -5 -4 -10 -10 -10 -5 0 -10 5 -10 10 0 6 5 10 10 10 6 0 10 -4 10
-10z m1435 0 c11 9 12 7 8 -10 -4 -16 -8 -18 -19 -9 -8 6 -14 17 -13 23 0 6 3
6 6 -2 4 -9 8 -10 18 -2z m29 -27 c-7 -21 -13 -48 -14 -60 0 -13 -5 -23 -10
-23 -11 0 -7 26 12 88 5 17 13 32 18 32 4 0 2 -17 -6 -37z m-47 -25 c-3 -8 -6
-5 -6 6 -1 11 2 17 5 13 3 -3 4 -12 1 -19z m-119 -29 c-10 -6 -18 -22 -18 -38
0 -15 -6 -35 -12 -44 -11 -15 -13 -12 -15 20 -1 32 0 34 7 13 7 -21 8 -19 9
18 1 37 4 42 24 42 20 -1 20 -2 5 -11z m29 -11 c-3 -8 -6 -5 -6 6 -1 11 2 17
5 13 3 -3 4 -12 1 -19z m-1307 -48 c0 -5 -5 -10 -11 -10 -5 0 -7 5 -4 10 3 6
8 10 11 10 2 0 4 -4 4 -10z m-113 -52 c-3 -8 -6 -5 -6 6 -1 11 2 17 5 13 3 -3
4 -12 1 -19z m-41 -25 c-11 -11 -17 4 -9 23 7 18 8 18 11 1 2 -10 1 -21 -2
-24z m21 5 c-3 -7 -5 -2 -5 12 0 14 2 19 5 13 2 -7 2 -19 0 -25z m1443 13 c0
-6 -4 -13 -10 -16 -5 -3 -10 1 -10 9 0 9 5 16 10 16 6 0 10 -4 10 -9z m-1330
-21 c0 -5 -5 -10 -11 -10 -5 0 -7 5 -4 10 3 6 8 10 11 10 2 0 4 -4 4 -10z
m-130 -54 c0 -26 -6 -18 -14 19 -5 22 -4 26 4 15 5 -8 10 -24 10 -34z m1479
-6 c1 13 2 13 12 0 8 -11 9 -6 5 20 -5 31 -5 32 5 13 9 -18 8 -32 -5 -68 -10
-25 -22 -45 -27 -45 -13 0 -11 17 4 24 9 5 9 7 0 12 -7 3 -10 11 -7 19 3 7 1
16 -4 19 -5 3 -7 18 -4 33 6 28 6 28 13 -7 3 -19 7 -28 8 -20z m-1462 18 c-3
-8 -6 -5 -6 6 -1 11 2 17 5 13 3 -3 4 -12 1 -19z m3 -38 c0 -5 -5 -10 -11 -10
-5 0 -7 5 -4 10 3 6 8 10 11 10 2 0 4 -4 4 -10z m1220 -19 c0 -6 -4 -13 -10
-16 -5 -3 -10 1 -10 9 0 9 5 16 10 16 6 0 10 -4 10 -9z m40 -5 c0 -7 -7 -19
-15 -26 -8 -7 -15 -18 -15 -25 0 -14 -29 -29 -38 -20 -3 3 0 5 7 5 7 0 9 5 6
11 -4 6 3 17 15 26 12 8 19 21 16 29 -3 8 1 14 9 14 8 0 15 -6 15 -14z m-82
-85 c3 -8 0 -11 -7 -7 -7 5 -11 -1 -11 -14 0 -30 -53 -80 -83 -80 -14 0 -27
-6 -30 -12 -2 -7 -4 1 -3 19 1 30 2 31 22 19 17 -12 23 -11 44 4 12 9 20 22
16 29 -5 7 -1 9 11 4 14 -5 16 -4 7 8 -24 31 -23 45 4 44 14 0 27 -6 30 -14z
m184 -3 c-7 -7 -12 -8 -12 -2 0 14 12 26 19 19 2 -3 -1 -11 -7 -17z m28 -27
c0 -6 -4 -13 -10 -16 -5 -3 -10 1 -10 9 0 9 5 16 10 16 6 0 10 -4 10 -9z m-73
-23 c-3 -8 -6 -5 -6 6 -1 11 2 17 5 13 3 -3 4 -12 1 -19z m50 -50 c-3 -8 -6
-5 -6 6 -1 11 2 17 5 13 3 -3 4 -12 1 -19z m-363 -70 c8 -5 6 -13 -6 -24 -17
-17 -38 -12 -38 9 0 8 3 8 9 -2 7 -10 10 -10 16 -1 4 7 2 16 -5 20 -7 5 -9 13
-4 21 6 10 9 10 12 -1 3 -8 10 -18 16 -22z m346 19 c0 -5 -9 -5 -20 -2 -11 3
-20 2 -20 -3 0 -6 5 -12 11 -14 6 -2 2 -14 -10 -28 -11 -14 -20 -19 -21 -12 0
7 -4 11 -9 7 -5 -3 -12 -1 -15 4 -3 5 1 11 9 15 8 3 15 1 15 -4 0 -6 5 -10 11
-10 7 0 9 9 5 24 -3 12 -3 26 0 29 9 9 44 4 44 -6z m-121 -74 c2 -1 -4 -9 -13
-19 -9 -9 -14 -24 -12 -33 5 -13 -2 -16 -34 -18 -45 -3 -56 18 -20 37 14 7 20
7 20 0 0 -17 19 -11 30 11 13 24 4 41 -10 19 -11 -17 -13 -9 -4 14 5 14 9 14
23 4 9 -7 18 -13 20 -15z m-382 -93 c-14 -11 -28 -20 -31 -20 -3 0 2 9 11 20
10 11 24 20 32 20 8 0 3 -8 -12 -20z m363 2 c0 -5 -13 -7 -30 -4 -16 2 -30 6
-30 8 0 2 14 4 30 4 17 0 30 -4 30 -8z m-10 -26 c0 -2 -9 -6 -20 -9 -11 -3
-20 -1 -20 4 0 5 9 9 20 9 11 0 20 -2 20 -4z m-530 -42 c0 -3 -7 -12 -15 -20
-12 -13 -15 -13 -15 -1 0 7 3 17 7 20 8 8 23 9 23 1z m30 -34 c-20 -13 -43
-13 -35 0 3 6 16 10 28 10 18 0 19 -2 7 -10z m174 -96 c4 -12 2 -15 -9 -11 -8
4 -17 2 -20 -3 -4 -6 -16 -10 -28 -10 -20 0 -19 2 8 20 36 24 41 24 49 4z
m-894 -113 c-7 -12 -10 -7 -11 19 -2 30 -3 28 -9 -15 -6 -44 -7 -46 -8 -14 -1
20 1 51 4 69 l7 32 13 -38 c8 -24 10 -43 4 -53z m17 52 c-3 -10 -5 -4 -5 12 0
17 2 24 5 18 2 -7 2 -21 0 -30z m433 31 c0 -3 -7 -12 -15 -20 -12 -13 -15 -13
-15 -1 0 7 3 17 7 20 8 8 23 9 23 1z m100 -1 c-8 -3 -24 -10 -35 -16 -18 -9
-19 -9 -6 6 7 10 23 17 35 16 14 0 16 -2 6 -6z m260 -2 c0 -12 -20 -25 -27
-18 -7 7 6 27 18 27 5 0 9 -4 9 -9z m-330 -31 c-20 -13 -43 -13 -35 0 3 6 16
10 28 10 18 0 19 -2 7 -10z m294 -5 c17 -13 17 -15 3 -21 -9 -3 -14 -10 -11
-15 3 -5 1 -9 -5 -9 -5 0 -12 4 -15 9 -3 5 -16 7 -29 5 -12 -2 -6 3 13 11 l35
15 -40 -5 -40 -5 30 14 c38 18 36 18 59 1z m41 -35 c-3 -5 -10 -10 -16 -10 -5
0 -9 5 -9 10 0 6 7 10 16 10 8 0 12 -4 9 -10z m0 -25 c-58 -28 -75 -30 -75
-11 0 9 12 14 36 14 20 0 41 5 47 11 6 6 18 11 27 11 8 -1 -7 -12 -35 -25z
m-802 -50 c5 -30 4 -35 -3 -20 -7 14 -8 6 -4 -31 3 -33 2 -54 -5 -59 -12 -7
-15 56 -5 118 8 45 9 44 17 -8z m564 39 c-3 -3 -12 -4 -19 -1 -8 3 -5 6 6 6
11 1 17 -2 13 -5z m-40 -10 c-3 -3 -12 -4 -19 -1 -8 3 -5 6 6 6 11 1 17 -2 13
-5z m40 -26 c-3 -8 -6 -5 -6 6 -1 11 2 17 5 13 3 -3 4 -12 1 -19z m-51 -13
c-21 -16 -32 -13 -21 4 3 6 14 11 23 11 15 -1 15 -2 -2 -15z m94 -5 c0 -5 -4
-10 -10 -10 -5 0 -10 5 -10 10 0 6 5 10 10 10 6 0 10 -4 10 -10z m60 6 c0 -2
-7 -6 -15 -10 -8 -3 -15 -1 -15 4 0 6 7 10 15 10 8 0 15 -2 15 -4z m-510 -80
c0 -2 -16 -6 -35 -8 -19 -2 -35 0 -35 4 0 4 16 8 35 8 19 0 35 -2 35 -4z m158
-4 c-10 -2 -18 -8 -18 -13 0 -5 -9 -9 -21 -9 -11 0 -17 4 -14 10 4 6 -7 8 -27
5 -25 -4 -27 -3 -9 3 13 4 42 8 65 8 23 0 33 -1 24 -4z m75 1 c-7 -2 -19 -2
-25 0 -7 3 -2 5 12 5 14 0 19 -2 13 -5z"/>
<path d="M4700 8200 c0 -5 5 -10 10 -10 6 0 10 5 10 10 0 6 -4 10 -10 10 -5 0
-10 -4 -10 -10z"/>
<path d="M5170 9410 c0 -5 5 -10 10 -10 6 0 10 5 10 10 0 6 -4 10 -10 10 -5 0
-10 -4 -10 -10z"/>
<path d="M5197 9359 c-4 -29 -3 -58 1 -65 4 -7 8 16 9 52 2 35 1 64 -1 64 -2
0 -6 -23 -9 -51z"/>
<path d="M3757 8844 c3 -7 9 -14 14 -14 14 0 10 17 -5 23 -10 4 -13 1 -9 -9z"/>
<path d="M3570 8804 c0 -8 5 -12 10 -9 6 3 10 10 10 16 0 5 -4 9 -10 9 -5 0
-10 -7 -10 -16z"/>
<path d="M8169 8642 c-602 -617 -1041 -1482 -1318 -2600 -27 -108 -57 -235
-67 -282 -9 -47 -20 -88 -23 -91 -11 -12 -324 59 -541 121 -1000 290 -1928
821 -2732 1563 l-108 100 -97 -35 c-54 -19 -98 -40 -98 -46 0 -19 222 -333
341 -482 656 -826 1479 -1460 2384 -1834 156 -65 542 -198 659 -227 l54 -13
-6 -66 c-4 -36 -17 -186 -31 -335 -101 -1089 -82 -2246 59 -3635 14 -135 28
-262 31 -282 l6 -38 753 0 753 0 -55 167 c-206 636 -411 1477 -533 2186 -36
211 -100 634 -100 664 0 7 15 16 34 21 18 5 97 33 175 61 754 275 1432 748
1991 1389 114 131 343 423 336 429 -1 2 -69 -1 -150 -7 -116 -7 -152 -13 -170
-27 -13 -10 -83 -66 -156 -126 -389 -314 -866 -594 -1365 -802 -255 -106 -742
-262 -760 -243 -26 25 -44 967 -26 1303 72 1319 392 2337 977 3114 l63 83 -51
47 c-90 81 -68 89 -229 -77z"/>
<path d="M5086 8727 c3 -10 9 -15 12 -12 3 3 0 11 -7 18 -10 9 -11 8 -5 -6z"/>
<path d="M4806 8341 c-4 -7 -5 -15 -2 -18 9 -9 19 4 14 18 -4 11 -6 11 -12 0z"/>
<path d="M4446 8215 c4 -8 11 -15 16 -15 6 0 5 6 -2 15 -7 8 -14 15 -16 15 -2
0 -1 -7 2 -15z"/>
<path d="M4795 8209 c-11 -17 1 -21 15 -4 8 9 8 15 2 15 -6 0 -14 -5 -17 -11z"/>
<path d="M4590 8129 c-25 -22 -62 -52 -84 -67 -21 -14 -34 -28 -28 -30 6 -2
20 6 31 17 14 14 27 18 38 13 15 -6 13 -8 -9 -10 -16 -2 -28 -7 -28 -12 0 -14
24 -18 50 -7 14 6 45 18 69 26 40 14 45 20 49 51 3 33 2 34 -11 16 -14 -19
-15 -19 -32 -3 -14 14 -15 20 -5 32 22 26 6 16 -40 -26z m7 -36 c1 -16 -1 -22
-4 -15 -2 6 -9 10 -14 6 -13 -8 -11 10 3 24 7 7 12 12 13 12 0 0 1 -12 2 -27z
m63 -9 c0 -2 -9 -4 -20 -4 -11 0 -20 4 -20 9 0 5 9 7 20 4 11 -3 20 -7 20 -9z"/>
<path d="M4646 8151 c-4 -7 -5 -15 -2 -18 9 -9 19 4 14 18 -4 11 -6 11 -12 0z"/>
<path d="M4450 7920 c-23 -15 8 -32 33 -18 16 8 17 12 6 19 -18 11 -21 11 -39
-1z m30 -4 c0 -3 -4 -8 -10 -11 -5 -3 -10 -1 -10 4 0 6 5 11 10 11 6 0 10 -2
10 -4z"/>
<path d="M9851 7563 c-1 -14 5 -23 14 -23 8 0 15 -9 15 -21 0 -11 5 -30 12
-42 10 -20 10 -21 -6 -8 -15 13 -19 13 -26 1 -5 -8 -6 -17 -2 -20 9 -7 11 -71
2 -65 -15 9 -17 71 -4 102 7 18 9 35 5 38 -5 2 -14 -17 -21 -43 -7 -26 -19
-59 -27 -74 -7 -16 -9 -28 -4 -28 5 0 13 9 16 21 4 11 9 18 11 16 8 -8 -19
-57 -31 -57 -17 0 -77 -100 -70 -118 3 -9 0 -12 -9 -9 -8 3 -20 -2 -28 -11
-12 -16 -11 -16 7 -2 19 14 19 14 6 -2 -7 -10 -20 -18 -27 -18 -8 0 -14 -3
-14 -7 0 -5 -10 -19 -21 -33 -11 -14 -17 -18 -13 -10 7 13 6 13 -9 1 -11 -9
-14 -18 -8 -25 5 -6 8 -22 7 -36 -1 -22 -6 -25 -38 -25 -20 0 -34 3 -31 8 3 5
11 6 18 3 7 -2 12 3 11 12 -1 12 5 16 19 14 15 -3 17 -1 8 8 -9 10 -24 2 -67
-36 -60 -51 -62 -54 -45 -71 8 -8 7 -13 -1 -18 -6 -4 -17 -2 -23 4 -9 9 -7 11
8 6 15 -5 17 -5 6 3 -11 8 -23 5 -44 -10 -61 -44 -215 -206 -251 -267 -35 -56
-38 -67 -29 -92 6 -15 7 -29 3 -31 -4 -2 -4 -23 0 -48 4 -25 8 -35 9 -22 1 23
4 31 38 97 18 35 19 43 7 60 -17 22 -18 51 -4 60 7 4 9 -2 5 -17 -4 -15 -1
-29 8 -36 12 -10 19 -5 41 26 18 26 24 45 20 58 -6 15 -4 17 6 7 10 -9 16 -8
28 3 8 8 11 18 7 22 -4 4 -10 1 -12 -6 -3 -6 -9 -9 -14 -6 -6 3 0 14 12 25 12
11 19 22 15 26 -4 4 -11 1 -16 -7 -5 -8 -13 -11 -17 -6 -4 5 -2 11 6 14 8 3
27 18 42 34 23 26 27 27 33 12 4 -9 4 -19 1 -22 -3 -3 -5 0 -5 7 0 7 -5 9 -10
6 -8 -5 -7 -12 2 -23 11 -13 11 -15 -2 -10 -11 4 -16 -2 -17 -23 -1 -16 1 -29
6 -29 4 0 13 -11 19 -25 17 -38 14 -45 -5 -11 -14 27 -16 28 -25 10 -6 -10
-17 -25 -26 -31 -10 -8 -15 -28 -15 -55 1 -35 0 -39 -7 -18 -7 21 -8 22 -10 5
-1 -11 -2 -54 -2 -95 0 -41 -4 -82 -9 -90 -6 -10 -7 -6 -3 14 5 21 4 27 -5 22
-13 -8 -13 -3 -2 47 5 21 5 37 0 37 -8 0 -13 -14 -11 -31 1 -4 -3 -21 -8 -38
-5 -18 -5 -31 0 -31 5 0 4 -12 -2 -27 -7 -16 -15 -59 -18 -98 l-6 -70 -14 33
c-17 39 -33 43 -20 5 9 -25 9 -26 -4 -10 -10 12 -13 39 -11 88 3 63 -6 89 -18
57 -3 -7 -3 11 -2 39 2 29 0 55 -6 58 -5 4 -9 11 -9 16 0 6 5 7 10 4 6 -3 10
1 10 9 0 16 -19 23 -21 9 -1 -5 -3 -17 -5 -28 -1 -11 -5 -31 -9 -45 -5 -21 -4
-22 4 -5 10 21 10 21 15 -113 1 -24 -1 -37 -6 -30 -14 23 -8 -6 13 -62 28 -75
75 -163 124 -234 22 -32 50 -74 62 -92 16 -23 28 -32 40 -28 14 5 15 4 4 -4
-12 -9 -12 -12 0 -25 8 -8 41 -46 74 -85 33 -39 64 -71 69 -71 5 -1 3 6 -4 14
-9 10 -9 15 -1 15 11 0 15 -13 12 -36 -1 -6 7 -18 16 -25 17 -13 17 -13 3 5
-13 18 -13 19 0 11 8 -5 22 -10 30 -10 8 0 17 -11 18 -24 2 -14 0 -21 -7 -17
-5 4 -8 13 -4 21 3 8 0 15 -7 15 -20 0 -6 -34 18 -46 13 -6 29 -18 35 -25 8
-8 5 -8 -8 1 -18 14 -19 14 -6 -2 7 -10 18 -14 25 -10 6 4 25 7 41 7 23 0 29
4 27 17 -2 11 2 16 10 13 7 -2 22 8 33 23 l20 27 -27 -17 c-27 -18 -38 -15
-38 11 0 14 2 14 10 1 6 -10 10 -11 10 -3 0 8 11 11 30 9 29 -3 63 18 40 26
-14 4 -2 88 12 88 6 0 8 -6 5 -14 -3 -7 0 -19 6 -26 9 -10 9 -14 0 -17 -7 -3
-13 -10 -13 -16 0 -8 4 -7 12 1 17 17 33 15 18 -3 -7 -8 -9 -15 -4 -15 11 0
71 69 147 168 39 52 55 82 51 94 -3 11 -1 17 5 16 6 -2 25 21 42 51 17 29 26
50 20 47 -6 -4 -11 -2 -11 3 0 6 4 11 10 11 11 0 29 30 33 57 2 10 8 28 15 40
7 12 13 30 15 40 2 10 9 38 16 62 34 120 33 491 -1 512 -6 4 -8 13 -6 21 3 8
0 25 -7 38 l-13 25 -7 -27 c-4 -16 -4 -35 -1 -44 4 -11 1 -14 -11 -12 -10 2
-19 12 -20 23 -3 20 -3 20 6 0 9 -19 10 -18 10 5 0 14 -3 31 -8 39 -8 12 -12
12 -25 2 -13 -11 -16 -11 -16 -1 0 8 -3 11 -6 7 -3 -3 1 -20 9 -37 9 -17 14
-39 11 -48 -5 -13 -4 -14 4 -3 7 9 10 -10 11 -64 1 -42 5 -84 11 -93 5 -10 10
-12 10 -4 0 6 5 12 10 12 6 0 10 -18 10 -41 0 -22 -4 -38 -9 -35 -12 8 -24
-59 -15 -86 3 -11 2 -23 -4 -27 -10 -6 -22 -131 -13 -131 3 0 7 -16 8 -36 1
-20 -1 -33 -5 -30 -3 4 -12 -4 -20 -16 -10 -18 -12 -19 -6 -3 14 42 14 69 -1
31 -8 -22 -13 -47 -10 -56 8 -26 -4 -50 -22 -43 -11 4 -14 3 -9 -6 5 -7 1 -20
-9 -31 -10 -11 -15 -26 -11 -35 3 -9 2 -14 -2 -11 -4 2 -13 -8 -20 -23 -7 -15
-21 -37 -33 -49 -11 -13 -22 -40 -24 -62 -3 -38 -3 -39 26 -35 26 3 28 2 19
-16 -12 -21 -30 -26 -30 -7 0 6 -3 9 -6 5 -12 -12 -33 17 -22 31 6 7 8 15 5
18 -3 3 -11 -4 -17 -16 -7 -12 -23 -35 -36 -50 -14 -15 -31 -35 -38 -46 -12
-15 -16 -16 -30 -5 -20 17 -20 38 -1 57 13 14 15 14 15 1 0 -9 -6 -17 -12 -20
-7 -2 -9 -8 -5 -13 10 -11 27 15 27 43 0 12 8 29 17 38 9 9 16 30 16 46 0 15
4 26 8 23 10 -6 24 53 22 96 -1 23 0 27 4 11 4 -22 7 -20 25 20 14 32 20 70
22 142 2 58 7 102 14 109 9 9 12 6 12 -15 0 -15 -4 -27 -8 -27 -4 0 -8 -24 -9
-52 -1 -50 -1 -51 8 -18 15 57 20 84 21 107 0 13 5 20 11 16 5 -3 7 -1 4 4 -4
6 0 29 8 52 7 22 17 70 20 107 3 37 8 71 11 75 3 5 0 9 -5 9 -6 0 -11 10 -10
23 0 20 1 21 8 2 6 -14 10 -3 15 39 5 43 2 66 -9 89 -8 16 -14 40 -14 51 1 16
3 13 10 -9 8 -28 8 -28 3 5 -11 75 -13 120 -3 115 5 -4 9 -14 10 -23 1 -11 4
-8 9 8 7 22 8 21 9 -13 1 -21 5 -36 10 -33 5 4 12 0 15 -6 6 -14 2 9 -9 52 -4
17 -3 21 3 11 8 -11 10 -11 15 0 4 8 4 3 1 -11 -3 -15 3 -37 16 -55 14 -21 20
-25 20 -13 0 9 -4 20 -10 23 -5 3 -9 21 -9 38 2 29 2 30 6 5 2 -14 11 -29 19
-32 8 -3 14 -3 14 0 0 11 -33 69 -43 75 -5 4 -7 17 -4 29 3 11 -1 33 -8 48 -8
15 -29 59 -48 97 -41 86 -75 147 -89 160 -12 11 -11 11 15 -47 9 -20 21 -39
27 -43 18 -11 10 -21 -17 -20 -17 0 -28 6 -29 15 0 9 1 10 3 3 5 -15 23 -17
23 -3 0 10 -6 23 -29 68 -6 13 -9 27 -6 32 7 11 -14 54 -22 46 -8 -8 -43 24
-43 38 0 6 9 0 20 -14 11 -14 20 -20 20 -15 0 6 -15 27 -34 47 -19 20 -36 43
-39 50 -3 7 -6 3 -6 -9z m19 -203 c0 -5 -5 -10 -11 -10 -5 0 -7 5 -4 10 3 6 8
10 11 10 2 0 4 -4 4 -10z m-95 -76 c-9 -14 -14 -32 -11 -40 6 -16 -10 -19 -19
-4 -3 6 3 24 15 40 26 37 39 40 15 4z m294 -77 c17 -37 27 -67 22 -67 -4 0
-13 10 -20 23 l-12 22 5 -23 c2 -12 0 -19 -5 -16 -6 3 -8 22 -5 42 6 36 5 37
-9 12 l-14 -25 1 27 c1 15 7 24 12 21 5 -4 7 1 3 10 -31 77 -17 60 22 -26z
m-282 41 c-3 -8 -6 -5 -6 6 -1 11 2 17 5 13 3 -3 4 -12 1 -19z m-87 -70 c-8
-7 -20 -20 -28 -28 -11 -13 -12 -12 -3 7 9 18 23 29 41 32 2 1 -2 -5 -10 -11z
m-150 -139 c0 -18 -2 -20 -15 -9 -13 11 -13 15 -3 21 18 12 18 12 18 -12z
m-14 -36 c-7 -7 -26 7 -26 19 0 6 6 6 15 -2 9 -7 13 -15 11 -17z m-71 -45 c-1
-18 -8 -34 -15 -36 -10 -4 -10 -6 0 -12 7 -4 -2 -7 -21 -5 -51 4 -51 4 -44 15
4 6 14 9 23 6 19 -6 59 20 49 31 -4 3 -16 -2 -27 -12 -11 -10 -20 -15 -20 -10
0 6 50 55 56 55 0 0 0 -14 -1 -32z m692 -30 c-3 -7 -5 -2 -5 12 0 14 2 19 5
13 2 -7 2 -19 0 -25z m-120 -80 c-3 -7 -5 -2 -5 12 0 14 2 19 5 13 2 -7 2 -19
0 -25z m-647 -28 c0 -17 -2 -19 -14 -8 -10 9 -11 15 -2 20 16 11 16 10 16 -12z
m-120 -40 c-9 -16 -8 -18 5 -14 8 4 15 1 15 -4 0 -6 -13 -10 -29 -10 -29 1
-29 1 -13 24 21 29 37 31 22 4z m927 -126 c0 -109 -16 -108 -19 1 l-1 70 -7
-60 -7 -60 -1 67 c-2 56 1 67 16 71 9 3 17 5 18 6 0 0 0 -42 1 -95z m-937 72
c0 -8 -4 -17 -9 -21 -12 -7 -24 12 -16 25 9 15 25 12 25 -4z m-50 -36 c0 -5
-4 -10 -8 -10 -4 0 -8 -9 -9 -20 -1 -11 2 -20 8 -20 5 0 9 8 10 18 0 11 2 12
6 4 3 -7 -1 -20 -8 -28 -12 -14 -14 -14 -25 1 -10 13 -10 23 -2 41 11 24 28
33 28 14z m97 -132 c-2 -13 -4 -3 -4 22 0 25 2 35 4 23 2 -13 2 -33 0 -45z
m840 30 c-3 -7 -5 -2 -5 12 0 14 2 19 5 13 2 -7 2 -19 0 -25z m-167 -25 c0
-15 2 -14 16 3 14 17 15 17 10 1 -3 -10 -6 -25 -6 -33 0 -9 -4 -13 -9 -9 -5 3
-12 -3 -14 -12 -3 -10 -5 -1 -6 19 0 20 -7 39 -13 41 -8 3 -6 6 5 6 10 1 17
-6 17 -16z m-23 -50 c-3 -10 -5 -2 -5 17 0 19 2 27 5 18 2 -10 2 -26 0 -35z
m213 2 c0 -8 -7 -15 -15 -15 -16 0 -20 12 -8 23 11 12 23 8 23 -8z m-910 -86
c0 -5 -4 -9 -10 -9 -5 0 -10 7 -10 16 0 8 5 12 10 9 6 -3 10 -10 10 -16z m883
-29 c-3 -11 -9 -17 -14 -15 -10 7 -1 35 11 35 5 0 6 -9 3 -20z m29 8 c-8 -10
-19 -62 -22 -99 0 -3 -7 -6 -15 -6 -11 0 -14 6 -9 16 3 9 13 35 21 59 8 23 20
42 25 42 7 0 7 -4 0 -12z m-969 -101 c3 3 5 -7 4 -23 -1 -16 3 -28 8 -27 6 1
11 -10 11 -23 3 -35 -3 -30 -27 24 -12 26 -26 56 -31 67 -8 18 -7 18 10 -2 11
-12 22 -20 25 -16z m911 -19 c5 -21 3 -28 -9 -28 -8 0 -15 -5 -15 -11 0 -6 7
-9 15 -5 9 3 15 0 15 -10 0 -19 -20 -14 -33 8 -7 11 -6 26 3 47 14 36 15 36
24 -1z m-214 -33 c0 -3 -6 -14 -12 -25 -10 -16 -10 -24 -1 -40 12 -18 8 -50
-6 -50 -8 0 -13 98 -5 111 6 10 24 13 24 4z m170 -45 c0 -5 -4 -10 -10 -10 -5
0 -10 5 -10 10 0 6 5 10 10 10 6 0 10 -4 10 -10z m-806 -42 c-3 -4 -9 -8 -15
-8 -5 0 -9 4 -9 8 0 5 7 9 15 9 8 0 12 -4 9 -9z m30 -3 c-4 -8 -1 -15 5 -15 6
0 11 -4 11 -10 0 -5 -4 -10 -9 -10 -12 0 -23 29 -15 41 9 14 14 10 8 -6z m784
-6 c3 -11 1 -11 -8 1 -9 12 -10 9 -5 -14 5 -26 4 -27 -10 -13 -8 9 -15 22 -15
30 0 19 33 15 38 -4z m-60 -19 c-11 -17 -10 -22 1 -29 9 -6 5 -8 -13 -8 -26 0
-26 0 -9 28 10 16 21 29 25 29 5 0 3 -9 -4 -20z m-712 -52 c3 -10 15 -18 27
-18 22 1 22 1 3 15 -11 8 -15 15 -9 15 18 0 28 -22 24 -53 -2 -26 0 -28 21
-22 20 7 21 6 9 -9 -10 -12 -17 -14 -27 -5 -8 6 -14 17 -14 25 0 7 -8 18 -18
23 -9 5 -28 29 -41 53 -20 38 -21 40 -2 18 11 -14 23 -33 27 -42z m80 -13 c1
-14 -2 -25 -7 -25 -5 0 -9 11 -9 25 0 33 15 33 16 0z m454 -20 c-13 -14 -25
-23 -28 -21 -5 6 31 44 42 45 5 1 -1 -10 -14 -24z m-32 -49 c-7 -8 -15 -12
-17 -11 -5 6 10 25 20 25 5 0 4 -6 -3 -14z m99 -37 c-15 -21 -12 -59 5 -59 5
0 3 -6 -4 -14 -7 -8 -17 -11 -22 -8 -5 3 -7 -2 -3 -10 3 -9 -3 -24 -14 -34
-10 -9 -19 -13 -20 -8 0 5 -2 19 -5 32 -2 12 1 22 6 22 6 0 10 -9 10 -21 0
-11 5 -17 10 -14 6 4 8 10 5 15 -3 5 -1 19 4 33 6 15 6 28 0 34 -5 5 -2 17 9
31 22 28 38 29 19 1z m53 -9 c0 -3 -6 -15 -14 -25 -12 -16 -16 -17 -29 -6 -13
10 -14 16 -4 26 12 13 47 17 47 5z m-494 -58 l2 -33 -24 33 c-13 17 -24 33
-24 34 0 1 10 1 22 0 18 -1 23 -7 24 -34z m84 -55 c0 -5 -8 -6 -17 -3 -9 4
-19 3 -22 -3 -3 -5 -11 -3 -18 4 -9 10 -5 12 23 12 19 -1 34 -5 34 -10z"/>
<path d="M9440 5920 c0 -5 5 -10 10 -10 6 0 10 5 10 10 0 6 -4 10 -10 10 -5 0
-10 -4 -10 -10z"/>
<path d="M1806 7409 c-71 -15 -167 -61 -215 -105 -110 -99 -191 -256 -297
-578 -41 -127 -93 -269 -115 -314 -67 -144 -161 -258 -277 -334 l-53 -35 43
-11 c86 -23 195 -41 303 -52 485 -46 904 73 1220 347 183 158 353 416 454 689
64 170 69 156 -80 214 -162 63 -362 124 -514 156 -135 28 -383 41 -469 23z
m34 -127 c-142 -70 -225 -133 -291 -220 -55 -72 -57 -54 -4 37 92 157 212 239
350 240 l60 1 -115 -58z m804 -474 c-140 -277 -407 -518 -688 -623 -140 -52
-398 -102 -381 -74 4 5 15 9 26 9 11 0 59 15 107 34 238 92 546 313 852 612
57 57 106 101 108 99 2 -1 -9 -27 -24 -57z"/>
<path d="M9600 7080 c0 -5 5 -10 10 -10 6 0 10 5 10 10 0 6 -4 10 -10 10 -5 0
-10 -4 -10 -10z"/>
<path d="M11626 6771 c-12 -19 -114 -79 -176 -104 -107 -42 -175 -49 -495 -51
-272 -2 -307 -5 -378 -24 -149 -41 -217 -95 -282 -222 -77 -152 -105 -331
-105 -677 l0 -243 84 0 c568 0 974 235 1204 696 76 152 141 382 158 562 6 67
3 85 -10 63z m-1015 -276 c-74 -35 -166 -102 -224 -164 -26 -28 -49 -51 -51
-51 -14 0 25 79 56 115 47 53 92 82 166 106 88 28 119 24 53 -6z m738 -376
c-121 -227 -333 -404 -585 -489 -82 -28 -233 -64 -240 -58 -1 2 56 34 127 71
325 171 583 360 689 505 24 34 46 60 48 57 2 -2 -16 -41 -39 -86z"/>
<path d="M9122 6455 c0 -16 2 -22 5 -12 2 9 2 23 0 30 -3 6 -5 -1 -5 -18z"/>
<path d="M9765 5736 c-32 -30 -63 -52 -68 -49 -5 3 -11 -4 -14 -16 -3 -11 -9
-18 -14 -16 -4 3 -5 13 -2 23 5 14 3 15 -8 4 -11 -10 -11 -15 2 -27 13 -13 24
-6 94 60 44 41 78 75 75 75 -3 0 -32 -24 -65 -54z"/>
<path d="M10820 5340 c-13 -8 -11 -11 8 -16 43 -12 21 -19 -61 -20 -45 0 -67
2 -49 4 17 2 32 7 32 13 0 5 -3 9 -7 9 -17 0 -160 -39 -183 -49 -24 -11 -24
-11 5 -6 20 4 25 3 16 -3 -11 -8 -11 -11 0 -16 14 -6 2 -4 -53 10 -19 4 -28 2
-28 -6 0 -7 -8 -9 -20 -5 -12 4 -20 2 -20 -5 0 -6 -4 -9 -9 -6 -4 3 -38 -6
-75 -21 -47 -18 -64 -28 -54 -34 10 -7 10 -9 -2 -9 -10 -1 -7 -5 8 -13 12 -7
19 -16 16 -20 -11 -10 -26 -8 -19 2 3 5 -4 12 -15 16 -11 4 -17 11 -14 17 5 8
1 9 -12 4 -10 -5 -31 -13 -46 -18 -16 -5 -28 -14 -28 -20 0 -5 -6 -8 -12 -5
-7 2 -25 -2 -41 -10 -23 -12 -26 -17 -16 -34 6 -12 13 -32 15 -46 3 -14 12
-36 21 -49 8 -13 12 -24 9 -24 -4 0 1 -14 10 -31 13 -25 18 -29 26 -18 6 10 7
5 3 -16 -4 -25 6 -49 55 -133 45 -75 65 -101 73 -93 14 11 52 -12 43 -27 -3
-5 1 -15 9 -22 8 -7 15 -19 15 -28 0 -9 -7 -5 -21 12 -12 15 -24 25 -26 22
-14 -14 203 -236 230 -236 10 0 16 -4 13 -9 -7 -10 37 -41 58 -41 7 0 17 -7
20 -16 8 -20 26 -9 26 16 0 14 5 18 16 13 9 -3 12 -9 7 -12 -5 -3 -12 -14 -16
-24 -5 -14 3 -23 45 -42 28 -13 55 -22 59 -19 5 3 17 -4 29 -16 11 -11 26 -20
33 -20 9 0 9 2 -1 9 -11 6 -9 9 6 13 11 3 26 1 33 -4 11 -8 10 -9 -4 -4 -15 5
-16 3 -7 -14 13 -24 33 -26 50 -5 10 12 10 15 0 15 -8 0 -11 2 -8 5 3 3 16 1
29 -4 13 -5 18 -10 11 -10 -7 -1 -10 -6 -6 -13 4 -6 3 -8 -4 -4 -6 3 -13 2
-16 -3 -3 -5 10 -12 30 -15 19 -4 42 -10 50 -13 8 -3 14 1 14 9 0 10 -10 14
-32 12 l-33 -3 30 8 c34 8 65 -3 65 -24 0 -9 16 -16 48 -20 26 -4 55 -9 65
-12 9 -2 17 0 17 6 0 6 18 10 43 10 40 -1 40 -2 12 -9 -20 -5 10 -8 85 -8 105
0 189 7 280 24 19 3 42 7 51 7 20 2 22 37 2 37 -9 0 -14 3 -10 6 3 3 20 3 37
-1 29 -6 30 -8 13 -22 -17 -14 -17 -14 2 -8 10 3 38 9 62 12 47 6 54 16 23 33
-12 6 -20 7 -20 1 0 -5 8 -12 18 -14 15 -4 15 -5 0 -6 -9 0 -20 4 -23 9 -3 6
-15 10 -26 10 -11 0 -22 7 -25 15 -4 8 -10 15 -15 15 -5 0 -9 -7 -9 -15 0 -12
-12 -15 -52 -13 l-53 1 45 6 c44 6 45 7 43 41 -1 23 1 30 7 20 5 -8 6 -18 3
-24 -4 -5 0 -7 9 -3 9 3 21 0 27 -6 6 -6 11 -9 11 -6 0 7 -124 134 -132 135
-5 1 -19 2 -32 3 -19 1 -26 8 -31 31 -4 17 -11 27 -16 24 -6 -4 -10 19 -9 58
1 58 -15 126 -40 170 -6 10 -10 25 -10 33 0 8 -4 15 -9 15 -5 0 -7 -8 -4 -18
2 -10 0 -34 -5 -53 -8 -31 -9 -29 -10 29 -1 43 2 61 9 56 18 -11 -1 39 -21 56
-10 8 -21 26 -25 40 -7 25 -7 25 10 5 l17 -20 -7 20 c-4 11 -12 35 -17 54
l-10 34 -20 -29 c-16 -24 -18 -25 -13 -6 10 34 -3 82 -21 75 -8 -3 -14 1 -14
11 0 22 7 20 36 -11 l26 -28 -18 38 c-10 20 -22 37 -26 37 -5 0 -8 6 -6 13 3
16 -30 77 -42 77 -6 0 -10 -7 -10 -15 0 -8 7 -15 15 -15 8 0 15 -5 15 -10 0
-7 -6 -7 -20 0 -11 6 -20 17 -20 24 0 7 -12 18 -26 24 -18 9 -24 17 -20 30 4
10 0 27 -8 37 -11 15 -17 17 -28 7 -11 -9 -17 -9 -26 0 -15 15 -15 28 -1 28 5
0 7 -4 4 -10 -3 -5 -2 -10 4 -10 5 0 13 5 17 12 5 8 20 -3 45 -32 23 -27 34
-47 28 -51 -7 -4 -5 -8 5 -12 30 -12 24 10 -19 65 -40 52 -91 92 -125 100 -8
2 -21 9 -28 16 -7 6 -21 12 -30 12 -15 0 -15 -2 -2 -10 13 -9 13 -11 0 -20 -8
-5 -21 -10 -29 -10 -10 0 75 -50 86 -50 0 0 -1 9 -4 19 -3 11 -11 17 -17 15
-7 -3 -13 1 -13 8 0 8 8 14 18 14 10 0 15 -4 13 -8 -3 -4 1 -6 8 -5 7 2 10 2
6 0 -16 -9 -7 -24 10 -19 10 4 27 -1 38 -9 18 -15 18 -15 -7 -9 -36 8 -47 -13
-21 -39 17 -17 24 -18 36 -8 13 11 17 11 22 -2 3 -9 3 -21 -1 -26 -3 -6 6 -31
21 -56 20 -35 32 -45 47 -43 15 2 23 -3 25 -17 3 -16 1 -18 -9 -7 -21 20 -29
14 -19 -14 21 -53 0 -46 -39 14 -17 26 -31 42 -31 36 0 -15 -48 -25 -56 -12
-3 5 -12 7 -20 4 -16 -6 -18 12 -4 34 8 13 11 11 16 -7 7 -25 12 -27 33 -14
11 7 10 12 -6 27 -30 30 -58 50 -50 37 5 -8 1 -11 -11 -10 -10 0 -19 7 -19 14
0 6 5 10 11 7 6 -3 0 4 -13 15 -13 12 -29 21 -37 21 -8 0 -14 3 -14 8 0 15
-66 35 -114 35 -47 -1 -48 0 -16 7 l35 7 -32 2 c-43 1 -42 16 2 32 26 10 31
15 21 21 -17 10 -48 0 -40 -13 6 -11 -4 -11 -31 1 -19 7 -18 9 8 19 39 15 63
14 92 -5 13 -9 30 -14 37 -11 7 2 0 8 -15 12 -24 6 -25 9 -12 19 20 14 -163
21 -185 6z m73 -7 c-13 -2 -33 -2 -45 0 -13 2 -3 4 22 4 25 0 35 -2 23 -4z
m-367 -98 c-23 -17 -71 -21 -61 -5 4 6 16 8 27 4 14 -4 18 -2 14 5 -5 7 2 11
16 11 22 -1 22 -1 4 -15z m451 -11 c-3 -3 -12 -4 -19 -1 -8 3 -5 6 6 6 11 1
17 -2 13 -5z m40 0 c-3 -3 -12 -4 -19 -1 -8 3 -5 6 6 6 11 1 17 -2 13 -5z m86
-48 c3 -8 3 -16 0 -19 -7 -8 -32 16 -26 26 7 11 20 8 26 -7z m-807 -17 c4 -8
-1 -9 -16 -4 -17 5 -21 4 -15 -6 6 -9 3 -11 -9 -6 -10 4 -21 7 -24 8 -10 1 31
17 45 18 6 1 15 -4 19 -10z m1002 -65 c-4 -3 -12 5 -18 18 -12 22 -12 22 6 6
10 -10 15 -20 12 -24z m-1112 1 c-1 -26 -10 -32 -21 -15 -5 7 11 37 21 40 1 0
1 -11 0 -25z m4 -57 c0 -10 -4 -18 -9 -18 -5 0 -11 8 -13 18 -3 11 0 19 8 19
8 0 14 -9 14 -19z m1070 -49 c0 -5 -4 -9 -10 -9 -5 0 -10 7 -10 16 0 8 5 12
10 9 6 -3 10 -10 10 -16z m30 5 c0 -8 -4 -12 -10 -9 -5 3 -10 10 -10 16 0 5 5
9 10 9 6 0 10 -7 10 -16z m-1042 -33 c4 -11 6 -11 13 0 7 12 9 11 8 -1 0 -8
-4 -24 -9 -35 -8 -20 -9 -19 -9 1 -1 22 -31 56 -31 35 0 -15 -17 -14 -23 2 -3
9 4 13 21 12 14 0 27 -6 30 -14z m1178 -87 c-1 -54 -1 -55 -13 -25 -9 21 -10
38 -3 56 5 14 11 25 13 25 2 0 3 -25 3 -56z m-1180 17 c-3 -5 1 -11 9 -15 8
-3 15 -11 15 -18 0 -9 -3 -8 -10 2 -5 8 -10 11 -10 5 0 -11 -20 16 -20 28 0 4
5 7 11 7 5 0 8 -4 5 -9z m131 -15 c-2 -6 0 -19 5 -29 8 -15 11 -16 23 -3 19
19 19 32 1 17 -10 -8 -16 -9 -21 -1 -3 5 -1 10 5 10 7 0 10 6 7 13 -3 7 3 13
12 13 14 0 17 -9 16 -43 -1 -24 3 -46 8 -50 6 -3 7 -1 4 4 -4 7 7 10 31 9 27
-1 38 -5 38 -16 0 -9 -8 -16 -17 -16 -10 0 -15 6 -12 13 3 7 1 13 -5 13 -15 0
-22 -26 -10 -38 6 -6 17 -8 26 -4 11 4 14 1 9 -11 -9 -23 17 -41 42 -28 28 16
37 14 38 -9 2 -22 -13 -27 -20 -7 -2 6 -8 8 -13 4 -11 -11 25 -39 39 -30 5 3
7 0 5 -8 -3 -8 2 -19 11 -26 18 -14 35 -17 28 -5 -3 4 6 7 19 7 30 0 31 -11 3
-20 -17 -6 -19 -9 -8 -16 8 -5 17 -3 22 4 6 8 7 7 4 -4 -10 -32 9 -43 75 -43
35 1 51 -1 36 -3 -34 -5 -43 -29 -17 -44 12 -6 44 -28 72 -50 29 -21 63 -45
77 -51 14 -7 46 -26 72 -41 26 -16 53 -27 59 -25 7 2 -12 16 -42 31 -30 15
-47 27 -38 27 8 0 20 -5 27 -12 8 -8 15 -8 26 1 16 14 56 6 56 -11 0 -6 -6 -6
-15 2 -9 7 -19 10 -23 6 -4 -4 4 -15 17 -25 13 -10 21 -23 17 -30 -4 -6 3 -15
19 -21 32 -12 58 -12 30 0 -15 7 -16 9 -4 9 9 1 23 -8 30 -18 15 -21 87 -42
75 -22 -4 6 -22 12 -39 12 l-32 2 35 7 c26 6 29 8 11 9 -13 0 -22 4 -18 7 11
11 58 -6 51 -18 -4 -7 -3 -8 4 -4 7 4 17 4 24 0 8 -5 6 -10 -7 -14 -16 -6 -11
-10 25 -23 l45 -17 -102 3 c-93 2 -101 1 -92 -14 5 -10 14 -19 20 -21 7 -2 10
-11 7 -18 -4 -11 -13 -6 -36 19 -18 18 -29 38 -25 45 4 6 1 6 -9 -2 -13 -10
-17 -10 -22 3 -3 8 -14 15 -26 15 -11 0 -42 9 -70 19 -27 11 -50 15 -50 11 0
-5 9 -12 21 -15 11 -4 18 -9 16 -12 -3 -2 -15 0 -26 7 -17 9 -25 8 -37 -5 -8
-8 -20 -15 -25 -15 -14 0 -11 17 7 34 31 32 -19 54 -55 25 -21 -18 -21 -39 0
-39 6 0 8 4 4 9 -3 5 -1 12 5 16 6 4 9 -4 8 -18 -2 -21 -5 -23 -23 -16 -11 5
-33 14 -48 20 -22 9 -25 14 -15 20 7 5 18 9 23 9 6 0 3 -5 -5 -10 -11 -7 -12
-10 -2 -10 8 0 25 9 38 19 l24 19 -26 21 c-15 12 -35 21 -44 21 -10 0 -21 7
-24 16 -3 8 -11 12 -17 9 -6 -4 -8 -13 -5 -21 4 -10 -2 -14 -20 -14 -16 0 -23
-4 -18 -11 4 -7 -1 -7 -16 1 -18 10 -20 14 -9 21 8 5 22 6 33 3 13 -4 17 -2
14 7 -3 8 -13 16 -24 18 -10 2 -27 13 -36 24 -10 11 -21 17 -25 14 -3 -4 4
-19 18 -34 21 -23 22 -25 4 -18 -11 4 -25 8 -32 8 -6 0 -9 7 -5 15 3 9 1 13
-5 9 -14 -9 -79 51 -75 70 2 8 -1 12 -7 8 -6 -3 -9 0 -6 7 3 7 1 18 -3 24 -9
15 -52 37 -59 31 -2 -3 4 -8 15 -11 11 -4 23 -13 26 -21 8 -21 1 -19 -28 8
-22 20 -24 28 -17 60 5 20 6 39 2 43 -3 4 0 4 7 0 7 -4 10 -17 6 -32 -4 -14
-2 -24 5 -24 6 0 11 5 11 10 0 7 7 7 21 0 11 -6 19 -19 18 -28 -1 -9 -1 -24 0
-32 1 -13 3 -13 11 0 7 12 12 12 29 -4 25 -23 27 -38 4 -29 -12 5 -15 2 -10
-10 3 -8 1 -18 -6 -21 -7 -2 4 -5 23 -6 27 -1 31 -3 16 -9 -15 -6 -17 -9 -6
-16 9 -5 19 -1 30 12 16 20 16 20 55 -13 21 -19 43 -34 49 -34 10 1 -3 13 -54
53 -9 7 -24 19 -35 27 -10 8 -16 10 -12 3 10 -16 -6 -24 -23 -12 -12 7 -13 10
-2 18 11 6 8 15 -15 39 -63 68 -87 98 -139 172 -30 43 -54 84 -55 92 0 9 -2 9
-5 1 -3 -7 -12 -9 -20 -6 -15 6 -17 -8 -8 -44 4 -13 12 -23 19 -23 11 0 12
-11 6 -55 0 -5 -10 5 -21 22 -11 19 -17 40 -13 49 4 11 2 15 -5 11 -6 -4 -20
6 -32 23 -16 22 -17 28 -6 24 9 -3 17 -14 17 -23 1 -14 2 -14 6 1 2 9 13 20
24 23 15 5 18 12 13 32 -4 16 -2 28 6 33 17 10 42 1 37 -14z m-80 -28 c-3 -8
-6 -5 -6 6 -1 11 2 17 5 13 3 -3 4 -12 1 -19z m1100 -20 c-3 -7 -5 -2 -5 12 0
14 2 19 5 13 2 -7 2 -19 0 -25z m-1027 -58 c0 -14 -28 -1 -34 16 -4 12 -2 12
14 4 11 -6 20 -15 20 -20z m23 -46 c-7 -19 -10 -18 -16 5 -3 13 -1 18 9 14 7
-2 10 -11 7 -19z m1127 -74 c0 -13 -1 -13 -10 0 -8 12 -10 9 -10 -13 0 -21 4
-27 17 -25 11 2 19 -5 21 -17 4 -17 2 -18 -12 -6 -10 9 -16 10 -16 2 0 -6 -4
-11 -10 -11 -11 0 -13 52 -3 88 4 18 8 20 14 10 5 -7 9 -20 9 -28z m-696 -104
c-7 -30 20 -59 50 -51 11 2 15 2 8 -1 -8 -4 -5 -11 10 -25 19 -16 15 -15 -23
4 -42 22 -95 65 -87 71 5 5 43 25 46 26 1 0 0 -11 -4 -24z m746 -105 c0 -6 -4
-13 -10 -16 -5 -3 -10 1 -10 9 0 9 5 16 10 16 6 0 10 -4 10 -9z m90 -56 c14
-16 10 -18 -14 -9 -9 3 -16 10 -16 15 0 14 16 11 30 -6z m37 -38 c2 -3 -12 -4
-31 -4 -20 1 -36 5 -36 9 0 7 58 3 67 -5z m-420 -13 c-3 -3 -12 -4 -19 -1 -8
3 -5 6 6 6 11 1 17 -2 13 -5z m33 -34 c0 -13 -11 -13 -30 0 -12 8 -11 10 8 10
12 0 22 -4 22 -10z m-314 -28 c1 -7 0 -8 -2 -3 -3 6 -20 8 -37 6 -29 -4 -29
-4 -7 4 30 11 43 9 46 -7z m44 -2 c0 -5 -4 -10 -10 -10 -5 0 -10 5 -10 10 0 6
5 10 10 10 6 0 10 -4 10 -10z m23 -27 c-7 -2 -19 -2 -25 0 -7 3 -2 5 12 5 14
0 19 -2 13 -5z m-106 -9 c-3 -3 -12 -4 -19 -1 -8 3 -5 6 6 6 11 1 17 -2 13 -5z
m698 -4 c-4 -6 6 -10 22 -10 24 -1 25 -2 10 -11 -9 -6 -26 -7 -37 -4 -24 7
-27 35 -4 35 8 0 12 -4 9 -10z m-222 -57 c-7 -2 -21 -2 -30 0 -10 3 -4 5 12 5
17 0 24 -2 18 -5z"/>
<path d="M10331 4733 c7 -12 15 -20 18 -17 3 2 -3 12 -13 22 -17 16 -18 16 -5
-5z"/>
<path d="M10460 4600 c0 -5 5 -10 10 -10 6 0 10 5 10 10 0 6 -4 10 -10 10 -5
0 -10 -4 -10 -10z"/>
<path d="M10720 4560 c0 -5 5 -10 10 -10 6 0 10 5 10 10 0 6 -4 10 -10 10 -5
0 -10 -4 -10 -10z"/>
<path d="M10510 4540 c0 -5 5 -10 10 -10 6 0 10 5 10 10 0 6 -4 10 -10 10 -5
0 -10 -4 -10 -10z"/>
<path d="M11025 5330 c-8 -13 25 -13 45 0 12 8 9 10 -12 10 -15 0 -30 -4 -33
-10z"/>
<path d="M10768 5323 c6 -2 18 -2 25 0 6 3 1 5 -13 5 -14 0 -19 -2 -12 -5z"/>
<path d="M11055 5310 c-3 -5 3 -10 15 -10 12 0 18 5 15 10 -3 6 -10 10 -15 10
-5 0 -12 -4 -15 -10z"/>
<path d="M11225 5180 c-3 -5 -1 -10 4 -10 6 0 11 5 11 10 0 6 -2 10 -4 10 -3
0 -8 -4 -11 -10z"/>
<path d="M11270 5160 c0 -5 5 -10 10 -10 6 0 10 5 10 10 0 6 -4 10 -10 10 -5
0 -10 -4 -10 -10z"/>
<path d="M10355 4670 c-3 -5 1 -10 10 -10 9 0 13 5 10 10 -3 6 -8 10 -10 10
-2 0 -7 -4 -10 -10z"/>
<path d="M11560 4531 c0 -16 5 -33 11 -37 8 -4 9 1 5 17 -6 21 -5 22 4 6 6
-10 10 -23 8 -29 -4 -10 36 -58 48 -58 3 0 -3 12 -14 28 -10 15 -24 42 -32 60
-17 44 -30 50 -30 13z"/>
<path d="M11590 4440 c0 -5 5 -10 10 -10 6 0 10 5 10 10 0 6 -4 10 -10 10 -5
0 -10 -4 -10 -10z"/>
<path d="M11770 4270 c-12 -7 -10 -9 7 -7 12 0 19 5 17 9 -6 10 -6 10 -24 -2z"/>
</g>
</svg>
