<svg id="Layer_1" data-name="Layer 1" xmlns="http://www.w3.org/2000/svg" viewBox="0 0 195.51 260.96"><title>byod</title><path d="M138,146a8.1,8.1,0,1,1,0-11.45A8.08,8.08,0,0,1,138,146Z" transform="translate(-35.06 -15.55)"/><path d="M91.6,106.88A57.9,57.9,0,0,1,132.81,89.8h0A57.87,57.87,0,0,1,174,106.9a3.46,3.46,0,1,0,4.9-4.9,64.75,64.75,0,0,0-46.11-19.12h0A64.77,64.77,0,0,0,86.71,102a3.46,3.46,0,1,0,4.9,4.9Z" transform="translate(-35.06 -15.55)"/><path d="M132.82,104.08A43.7,43.7,0,0,0,101.69,117a3.46,3.46,0,1,0,4.9,4.9,37.08,37.08,0,0,1,52.48,0A3.46,3.46,0,0,0,164,117,43.74,43.74,0,0,0,132.82,104.08Z" transform="translate(-35.06 -15.55)"/><path d="M98.57,223.29h68.48a32.52,32.52,0,0,0,32.48-32.48V48a32.52,32.52,0,0,0-32.48-32.48H98.57A32.52,32.52,0,0,0,66.09,48V190.8A32.52,32.52,0,0,0,98.57,223.29ZM73,48A25.58,25.58,0,0,1,98.57,22.47h68.48A25.58,25.58,0,0,1,192.61,48v.44a3.41,3.41,0,0,0-2.92-1.71H75.94A3.41,3.41,0,0,0,73,48.47ZM73,52a3.41,3.41,0,0,0,2.92,1.71H189.69A3.41,3.41,0,0,0,192.61,52V172.8a3.41,3.41,0,0,0-2.92-1.71H75.94A3.41,3.41,0,0,0,73,172.8ZM73,176.3A3.41,3.41,0,0,0,75.94,178H189.69a3.41,3.41,0,0,0,2.92-1.71v14.5a25.59,25.59,0,0,1-25.56,25.56H98.57A25.59,25.59,0,0,1,73,190.8Z" transform="translate(-35.06 -15.55)"/><circle cx="97.76" cy="181.06" r="8.86"/><path d="M227.11,261.23h-83a11.79,11.79,0,0,0-7.79-7.78V236.92a3.46,3.46,0,1,0-6.92,0v16.53a11.79,11.79,0,0,0-7.78,7.78h-83a3.46,3.46,0,0,0,0,6.92h83a11.75,11.75,0,0,0,22.49,0h83a3.46,3.46,0,0,0,0-6.92Z" transform="translate(-35.06 -15.55)"/></svg>