<svg id="Layer_1" data-name="Layer 1" xmlns="http://www.w3.org/2000/svg" viewBox="0 0 247.36 205.45"><title>cloud</title><path d="M230.32,160.51a41.55,41.55,0,0,0,3-15.56c0-.09,0-.2,0-.32a32.09,32.09,0,0,0-6.33-22,43.16,43.16,0,0,0-47.39-19.72A65.1,65.1,0,1,0,54.15,131.39a47,47,0,0,0,2,93.93H70.37a4.19,4.19,0,1,0,0-8.38H56.11a38.6,38.6,0,0,1,0-77.21A20.47,20.47,0,0,1,59,140l1.46.18a4.05,4.05,0,0,0,3.94-1.8A4.2,4.2,0,0,0,64.6,134,56.72,56.72,0,1,1,171.39,107.4H175l.06.14-3.74,1a4.19,4.19,0,0,0,5.74,4c16.12-6.44,34-.1,43,14.72A25.22,25.22,0,0,1,225,145a34.42,34.42,0,0,1-4.63,17,4.19,4.19,0,0,0,3.62,6.24,24.42,24.42,0,0,1,24.16,24.34c0,13.44-11.11,24-24.65,24.33a11.59,11.59,0,0,0-1.44-.11l-1.5.15H195.26a3.93,3.93,0,0,0-3.87,4.19,4.47,4.47,0,0,0,4.51,4.19h24.64c.49,0,1-.05,1.77-.12a10.08,10.08,0,0,0,1.45.12,32.73,32.73,0,0,0,6.57-64.8Z" transform="translate(-9.13 -42.29)"/><path d="M109.67,189.77a4.19,4.19,0,0,0-5.92,0L85.12,208.39A4.19,4.19,0,1,0,91,214.31l11.47-11.47v40.71a4.19,4.19,0,1,0,8.38,0V202.85l11.46,11.46a4.19,4.19,0,1,0,5.92-5.92Z" transform="translate(-9.13 -42.29)"/><path d="M174.58,222l-11.46,11.46V192.73a4.19,4.19,0,1,0-8.38,0v40.71L143.27,222a4.19,4.19,0,1,0-5.92,5.92L156,246.51a4.19,4.19,0,0,0,5.92,0l18.62-18.62a4.19,4.19,0,1,0-5.92-5.92Z" transform="translate(-9.13 -42.29)"/></svg>