<svg id="Layer_1" data-name="Layer 1" xmlns="http://www.w3.org/2000/svg" viewBox="0 0 255.52 270.29"><defs><style>.cls-1{fill:#181818;}</style></defs><title>firewall</title><path class="cls-1" d="M329.6,363.56a1.62,1.62,0,1,1-3-.87,1.87,1.87,0,0,1,.27-.32l.63-.79a30.19,30.19,0,0,0,1.28-34.79,8.33,8.33,0,0,1-16.67-.15,8.78,8.78,0,0,1,.26-2.09s0,0,0,0a12.21,12.21,0,0,1,.41-1.19s0,0,0,0a39.12,39.12,0,0,0,1.74-8.17,37.67,37.67,0,0,0,.22-4.22,39.89,39.89,0,0,0-14-30.39c5.55,10.88,1.25,25.85-12.56,36.47a34.58,34.58,0,0,0,.34-4.69,61,61,0,0,0-21.46-46.51c-1.23-1-2.48-2-3.77-3-32-21.61-42.34-54.18-30.46-77.47a80.76,80.76,0,0,0-28.34,61.5,82,82,0,0,0,.45,8.54,81.06,81.06,0,0,0,3.52,16.54s0,0,0,0a18,18,0,0,1,.84,2.42s0,0,0,0a16.67,16.67,0,0,1,.53,4.22,16.86,16.86,0,0,1-33.73.32,61.12,61.12,0,0,0,2.59,70.4c.41.55.85,1.09,1.27,1.62a3.21,3.21,0,0,1,.54.66,3.12,3.12,0,0,1,.52,1.75,3.27,3.27,0,1,1-6.54,0c0-.09,0-.16,0-.25a17.26,17.26,0,0,0,10,18.88,17.54,17.54,0,0,0,4.48,1.28,17.23,17.23,0,0,0,2.48.17H321.2a10.45,10.45,0,0,0,1.22-.08,8.77,8.77,0,0,0,2.22-.63,8.54,8.54,0,0,0,5.09-7.82,9.36,9.36,0,0,0-.13-1.52Zm-9.19-7.5-.23.28-.09.12a10.64,10.64,0,0,0-1,1.24l-.07.11a10.58,10.58,0,0,0-1.7,5.76c0,.31,0,.62,0,.92H191.56a8.21,8.21,0,0,1-1.17-.07,8.45,8.45,0,0,1-2.17-.62,8.26,8.26,0,0,1-2.11-1.34,12.26,12.26,0,0,0,4-9,12.44,12.44,0,0,0-3.33-8.4c-.26-.32-.52-.65-.77-1l-.08-.11a51.63,51.63,0,0,1-10.65-31.58A52.34,52.34,0,0,1,177,298.9a25.86,25.86,0,0,0,41.17-26.36c0-.18-.08-.35-.13-.53a27.18,27.18,0,0,0-1.1-3.24,72.39,72.39,0,0,1-3-14.29,73.4,73.4,0,0,1-.4-7.6,71.81,71.81,0,0,1,6.66-30.22c3.72,19.71,17.07,39.38,38,53.57.94.68,1.92,1.46,3.08,2.44a52.09,52.09,0,0,1,18.3,39.67,25.49,25.49,0,0,1-.26,3.49,9,9,0,0,0,14.41,8.34,51.19,51.19,0,0,0,12.07-13.06,28.79,28.79,0,0,1-.17,3.12,30.27,30.27,0,0,1-1.24,6c-.21.54-.41,1.11-.59,1.74-.07.24-.13.48-.18.72a17.75,17.75,0,0,0-.45,4,17.32,17.32,0,0,0,21.57,16.8A21.06,21.06,0,0,1,320.41,356.06Z" transform="translate(-112.74 -185.37)"/><path class="cls-1" d="M278.29,363.94a1.55,1.55,0,0,1-3.11,0,1.58,1.58,0,0,1,.24-.84,2.52,2.52,0,0,1,.27-.31c.21-.25.4-.51.61-.77a29,29,0,0,0,1.23-33.44,8,8,0,0,1-16-.16,8.44,8.44,0,0,1,.25-2s0,0,0,0a11.61,11.61,0,0,1,.39-1.15s0,0,0,0a38.23,38.23,0,0,0,1.68-7.86,34.69,34.69,0,0,0,.21-4.05,38.33,38.33,0,0,0-13.45-29.2c5.64,11.06.71,26.53-14.47,36.79-.6.43-1.2.92-1.78,1.41a29,29,0,0,0-10.19,22.09c0,.21,0,.39,0,.6-.16-.15-.3-.3-.47-.44-.34-.28-.68-.55-1-.79-8.59-5.8-11.37-14.55-8.18-20.79a21.64,21.64,0,0,0-7.6,16.5,20.09,20.09,0,0,0,.11,2.29,21.68,21.68,0,0,0,.95,4.45h0c.08.22.16.43.22.66,0,0,0,0,0,0a5,5,0,0,1,.13,1.13,4.52,4.52,0,0,1-9,.09A16.39,16.39,0,0,0,200,367c.11.14.22.29.34.43l.16.18a.94.94,0,0,1,.13.48.88.88,0,0,1-1.76,0V368a4.42,4.42,0,0,0-.07.82,4.62,4.62,0,0,0,2.77,4.25,4.42,4.42,0,0,0,1.2.34,5.26,5.26,0,0,0,.66,0h66.79a9.42,9.42,0,0,0,1.16-.07,8.54,8.54,0,0,0,2.14-.61,8.21,8.21,0,0,0,4.9-7.52,8.09,8.09,0,0,0-.13-1.45Zm-9.11-7.44-.21.27,0,.06c-.2.22-.36.41-.48.58a9,9,0,0,0-.68.95,10.59,10.59,0,0,0-1.59,5.58c0,.18,0,.36,0,.54H208.94a9.94,9.94,0,0,0-.62-1.31,9,9,0,0,0-1.12-1.56h0l0-.05-.26-.36A13.57,13.57,0,0,0,217,350.83l.46.32.26.2.3.28a9,9,0,0,0,15.11-7c0-.13,0-.25,0-.39a20,20,0,0,1,7-15c.44-.38.82-.68,1.14-.92A51,51,0,0,0,255,314.7c0,.6-.06,1.15-.12,1.65,0,0,0,.08,0,.12a29.4,29.4,0,0,1-1.21,5.79c-.2.52-.37,1.06-.55,1.67-.06.22-.12.44-.16.66a17.39,17.39,0,0,0-.44,3.84,17,17,0,0,0,17,17,16.83,16.83,0,0,0,3.71-.41A19.8,19.8,0,0,1,269.18,356.51Z" transform="translate(-112.74 -185.37)"/><path class="cls-1" d="M203.92,455.66H140.13V419.27h63.79Zm-54.79-9h45.79V428.27H149.13Z" transform="translate(-112.74 -185.37)"/><path class="cls-1" d="M258.7,455.66H194.92V419.27H258.7Zm-54.78-9H249.7V428.27H203.92Z" transform="translate(-112.74 -185.37)"/><path class="cls-1" d="M313.47,455.66H249.7V419.27h63.78Zm-54.78-9h45.78V428.27H258.7Z" transform="translate(-112.74 -185.37)"/><path class="cls-1" d="M368.27,455.66H304.47V419.27h63.79Zm-54.79-9h45.79V428.27H313.47Z" transform="translate(-112.74 -185.37)"/><path class="cls-1" d="M203.92,400.88H140.13v-36.4h63.79Zm-54.79-9h45.79v-18.4H149.13Z" transform="translate(-112.74 -185.37)"/><path class="cls-1" d="M258.7,400.88H194.92v-36.4H258.7Zm-54.78-9H249.7v-18.4H203.92Z" transform="translate(-112.74 -185.37)"/><path class="cls-1" d="M313.47,400.88H249.7v-36.4h63.78Zm-54.78-9h45.78v-18.4H258.7Z" transform="translate(-112.74 -185.37)"/><path class="cls-1" d="M368.27,400.88H304.47v-36.4h63.79Zm-54.79-9h45.79v-18.4H313.47Z" transform="translate(-112.74 -185.37)"/><path class="cls-1" d="M176.52,428.27H112.74V391.88h63.77Zm-54.77-9h45.77V400.88H121.74Z" transform="translate(-112.74 -185.37)"/><path class="cls-1" d="M231.31,428.27H167.52V391.88h63.79Zm-54.79-9h45.79V400.88H176.52Z" transform="translate(-112.74 -185.37)"/><path class="cls-1" d="M286.08,428.27H222.31V391.88h63.78Zm-54.78-9h45.78V400.88H231.31Z" transform="translate(-112.74 -185.37)"/><path class="cls-1" d="M340.86,428.27H277.08V391.88h63.78Zm-54.78-9h45.78V400.88H286.08Z" transform="translate(-112.74 -185.37)"/></svg>