<svg id="Layer_1" data-name="Layer 1" xmlns="http://www.w3.org/2000/svg" viewBox="0 0 263.9 290.08"><defs><style>.cls-1{fill:#424242;}</style></defs><title>medical</title><path class="cls-1" d="M370.23,383.61c-2.56-14.33-7.67-27.11-14.4-36-8.34-11-21.39-12.89-33-13.78-1.89-.15-4-.23-6.53-.25-2.08,0-4.18,0-6.43,0s-4.45,0-6.65,0c-4.92-.05-11.15-.3-15.65-1.81-1.12-.38-2.72-1.23-3.74-4.28a22.29,22.29,0,0,1-.65-9.23c.54-.49,1.07-1,1.6-1.49a61.63,61.63,0,0,0,18.53-41.36,33,33,0,0,0,10.61-10.55,23,23,0,0,0,3.62-14.84c-.57-4.24-3.15-11.57-13.87-15.11A61.75,61.75,0,0,0,242.3,175.1h-.12a61.73,61.73,0,0,0-62.55,58.56c-10.81,3.32-13.54,10.6-14.2,14.83a23,23,0,0,0,3.32,14.91,33,33,0,0,0,10.36,10.74,61.69,61.69,0,0,0,17.67,41.8c.56.57,1.14,1.13,1.72,1.68a22.12,22.12,0,0,1-.86,9c-1.08,3-2.7,3.85-3.83,4.2-4.53,1.42-10.76,1.54-15.69,1.49-2.2,0-4.46-.09-6.65-.15s-4.33-.12-6.42-.14c-2.57,0-4.65,0-6.54.12-11.6.66-24.69,2.26-33.25,13.1-6.91,8.75-12.29,21.42-15.14,35.69s-2.79,28.14.19,39.08a6.75,6.75,0,0,0,1,2.15c.32.45,8.1,11.21,27.91,21.75a165.92,165.92,0,0,0,38.86,14.35c17.9,4.33,38,6.64,59.84,6.86a6.76,6.76,0,0,0,1.39-.13,6.74,6.74,0,0,0,1.39.16c21.8.22,42-1.67,60-5.63A165.88,165.88,0,0,0,339.83,446c16-8.09,25.34-17.12,28.35-21.18a6.78,6.78,0,0,0,1.06-2.12C372.44,411.81,372.79,397.93,370.23,383.61ZM303.67,244.38c3.73,2,4.94,4.67,5.23,6.83.55,4.15-1.63,9-5.43,13ZM179.11,262.81c-3.65-4-5.69-8.89-5.05-13,.33-2.13,1.57-4.77,5.26-6.66Zm14.57-34.35c7-1,15.27-5.08,34.58-18.12,0,0-1.57,13.53-9.48,18.7,0,0,43.72-11.57,49.51-18.29a75.85,75.85,0,0,0,20.24,13.36,50,50,0,0,1,1.47,8.77,145.15,145.15,0,0,0-16.88-1.19c-11-.11-20.48,1.27-28,4.1l-.1,0-6.69-.07-.1,0c-7.5-3-16.9-4.57-27.95-4.68a144.58,144.58,0,0,0-17,.87C193.33,230.75,193.49,229.6,193.68,228.46ZM282,256c-1.53,3.05-4.87,6.67-12.1,6.6a29.14,29.14,0,0,1-13.18-3.67c-1.61-.94-4-3.11-6.22-8.11a23.82,23.82,0,0,1-2.11-7.07c.09-3.55,2.54-6.1,7.27-7.59a43.49,43.49,0,0,1,12.38-1.55c1,0,1.87,0,2.68,0a31.77,31.77,0,0,1,9.46,1.21,7.93,7.93,0,0,1,4.9,5.53C286,245.7,284,252,282,256Zm-47.31-12.39a23.81,23.81,0,0,1-2.25,7c-2.32,5-4.75,7.07-6.37,8h0a29.15,29.15,0,0,1-13.25,3.4c-7.24-.07-10.5-3.76-12-6.85-1.92-4.08-3.79-10.39-2.78-14.73a7.93,7.93,0,0,1,5-5.43,31.75,31.75,0,0,1,9.48-1c.81,0,1.67,0,2.68.07a43.48,43.48,0,0,1,12.35,1.8C232.29,237.46,234.69,240.06,234.71,243.61ZM192.6,272l.3-29.65a1.43,1.43,0,0,1,.32.71v.07a.49.49,0,0,0,0,.1c1.09,6.26,2.86,11.34,5.26,15.1A15.32,15.32,0,0,0,205,264a20,20,0,0,0,8.44,1.83,26.25,26.25,0,0,0,12.45-3.08,19.55,19.55,0,0,0,8.69-8.67,25.87,25.87,0,0,0,1.16-3.21v0c.67-2.14,1.36-4.35,2.64-5.6a4.91,4.91,0,0,1,3.14-1.12h0a5.11,5.11,0,0,1,3.24,1.19c1.25,1.28,1.9,3.5,2.52,5.65v0a25.88,25.88,0,0,0,1.09,3.24,19.55,19.55,0,0,0,8.51,8.85,26.25,26.25,0,0,0,12.38,3.34,20,20,0,0,0,8.48-1.66,15.33,15.33,0,0,0,6.59-5.53c2.47-3.7,4.34-8.74,5.57-15a.53.53,0,0,0,0-.1v-.07a1.38,1.38,0,0,1,.21-.54L289.8,273c-.28,27.26-22.26,49.21-49.11,48.94S192.32,299.26,192.6,272Zm84.85,69.48-37.5,63.44-36.19-64.2a20.48,20.48,0,0,0,6.67-9.55,28.69,28.69,0,0,0,1.11-4.09A61.89,61.89,0,0,0,240,334.52a1.78,1.78,0,0,0,.6,0h0a1.65,1.65,0,0,0,.58.05,61.7,61.7,0,0,0,28.74-6.94,28.73,28.73,0,0,0,1,4.21A20.48,20.48,0,0,0,277.45,341.49Zm79.15,76.06a48.71,48.71,0,0,1-4.67,4.49A92.82,92.82,0,0,1,333,434.22a153.67,153.67,0,0,1-35.84,12.19c-16.83,3.65-35.79,5.4-56.33,5.18a6.76,6.76,0,0,0-1.39.13,6.77,6.77,0,0,0-1.39-.16c-20.55-.21-39.46-2.34-56.22-6.34a153.65,153.65,0,0,1-35.59-12.92,92.83,92.83,0,0,1-18.64-12.57,48.75,48.75,0,0,1-4.57-4.59c-2-8.6-1.91-20,.34-31.4,2.39-12.09,6.95-23.06,12.5-30.1,5.07-6.42,14.33-7.45,23.38-8,1.58-.09,3.37-.12,5.63-.1,2,0,4,.08,6.19.14s4.61.13,6.93.16c6.1.06,13.14-.13,19.33-2l39.41,69.91a3.57,3.57,0,0,0,6.19.06l40.84-69.08c6.15,2,13.18,2.29,19.29,2.35,2.31,0,4.66,0,7,0s4.2,0,6.16,0c2.26,0,4,.09,5.62.21,9,.7,18.27,1.93,23.21,8.45,5.41,7.15,9.74,18.21,11.88,30.35C358.92,397.59,358.8,409,356.59,417.55Z" transform="translate(-108.03 -175.1)"/><polygon class="cls-1" points="214.28 199.38 200.07 199.24 199.95 211.07 188.11 210.95 187.97 225.16 199.81 225.28 199.68 237.12 213.89 237.26 214.01 225.42 225.85 225.54 225.99 211.34 214.16 211.22 214.28 199.38"/></svg>