<svg id="Layer_1" data-name="Layer 1" xmlns="http://www.w3.org/2000/svg" viewBox="0 0 236.33 219.36"><title>people</title><path d="M214.22,169.22A46.9,46.9,0,0,0,182,88.2a46.27,46.27,0,0,0-16.87,3.22,61.15,61.15,0,1,0-101.44,51,89.79,89.79,0,0,0-49.47,80.27v28a4.19,4.19,0,0,0,4.19,4.19H246.36a4.19,4.19,0,0,0,4.19-4.19v-21A68.38,68.38,0,0,0,214.22,169.22ZM22.61,222.67a81.53,81.53,0,0,1,50.66-75.45,4.19,4.19,0,0,0,.79-7.31,52.79,52.79,0,1,1,60.35,0,4.19,4.19,0,0,0,.79,7.31,81.53,81.53,0,0,1,50.66,75.45v23.77H22.61Zm219.57,23.77H194.24V222.67a89.79,89.79,0,0,0-49.47-80.27,61.17,61.17,0,0,0,20.43-41.89A38.09,38.09,0,0,1,182,96.58a38.53,38.53,0,0,1,22,70.15,4.19,4.19,0,0,0,.79,7.31,60.09,60.09,0,0,1,37.35,55.62Z" transform="translate(-14.23 -35.46)"/></svg>